<?xml version="1.0" encoding="UTF-8" standalone="no"?>
<!-- Created with Inkscape (http://www.inkscape.org/) -->

<svg
   width="79.722778mm"
   height="79.722778mm"
   viewBox="0 0 79.722778 79.722778"
   version="1.1"
   id="svg1"
   xml:space="preserve"
   xmlns="http://www.w3.org/2000/svg"
   xmlns:svg="http://www.w3.org/2000/svg"><defs
     id="defs1" /><g
     id="layer1"
     transform="translate(-60.03721,-111.42793)"><g
       id="g1"><circle
         style="fill:#ffffff;fill-opacity:1;stroke:none;stroke-width:0.241771;stroke-linecap:round;stroke-linejoin:round;stroke-miterlimit:3.5;stroke-opacity:1"
         id="circle71"
         cx="99.898605"
         cy="151.28932"
         r="39.861389" /><path
         style="fill:#5d8831;fill-opacity:1;stroke-width:0.0912928"
         d="m 102.3866,146.16918 c 0.12764,-0.0742 0.1152,-0.11117 -0.10974,-0.32617 -2.18193,-1.11296 -5.556655,-0.9542 -6.880127,0.93602 -0.281158,0.42392 -0.890254,1.02712 -0.8043,1.16144 0.06094,0.0948 0.721942,-0.181 0.802578,-0.21694 2.637804,-1.65732 4.618649,-0.18809 6.991589,-1.55435 z"
         id="path54" /><path
         style="fill:#5d8831;fill-opacity:1;stroke-width:0.110339"
         d="m 85.364726,151.15421 c -0.180411,-0.0675 -0.178538,-0.11248 0.01685,-0.39692 2.238632,-1.62321 6.367247,-1.94018 8.633818,0.0686 0.489434,0.45284 1.43804,1.06609 1.381936,1.2356 -0.03959,0.11955 -0.93531,-0.10377 -1.045459,-0.13367 -3.770041,-1.54144 -5.639837,0.46769 -8.987148,-0.77361 z"
         id="path55" /><path
         style="-inkscape-font-specification:Sacramento;fill:#00000f;fill-opacity:1;stroke-width:1.58526"
         d="m 131.38544,161.07488 c -1.09002,1.90646 -2.6179,3.83125 -4.58368,5.77437 -1.96782,1.91918 -4.2543,3.69183 -6.85945,5.31797 -2.58072,1.60035 -5.43635,2.94274 -8.56682,4.02717 -3.12844,1.10838 -6.40035,1.78104 -9.81575,2.018 -2.674065,0.18553 -5.366405,0.15551 -8.077022,-0.09 -2.684153,-0.24739 -5.294896,-0.72873 -7.832267,-1.44401 -2.510947,-0.71712 -4.882285,-1.67278 -7.114093,-2.86697 -2.207335,-1.21998 -4.170221,-2.69781 -5.888658,-4.4335 -1.718437,-1.7357 -3.127241,-3.74582 -4.226452,-6.03036 -1.072708,-2.28639 -1.730905,-4.86652 -1.974589,-7.74039 -0.237592,-2.80203 -0.01292,-5.4916 0.674059,-8.06869 0.713443,-2.57894 1.80051,-4.99108 3.261281,-7.23642 1.45874,-2.2693 3.240247,-4.34418 5.344483,-6.22464 2.104236,-1.88046 4.442599,-3.51218 7.015128,-4.89515 2.570498,-1.40692 5.310994,-2.53656 8.221449,-3.38892 2.910494,-0.85235 5.914563,-1.38599 9.012245,-1.6009 3.415366,-0.23696 6.650416,-0.088 9.705156,0.44683 3.07917,0.50907 5.80082,1.35611 8.16503,2.54111 2.36213,1.16106 4.27104,2.63059 5.72675,4.40861 1.48014,1.75222 2.31669,3.76591 2.50961,6.04106 0.1787,2.10751 -0.19346,4.15688 -1.11654,6.14811 -0.9251,1.96729 -2.27984,3.73552 -4.06425,5.30472 -1.75792,1.56735 -3.87221,2.85831 -6.3428,3.87287 -2.44413,1.01271 -5.09593,1.61827 -7.95532,1.81665 -2.30341,0.15981 -4.36335,0.0498 -6.1799,-0.33007 -1.818535,-0.4038 -3.362098,-1.01941 -4.630687,-1.84681 -1.268589,-0.8274 -2.259118,-1.83068 -2.971627,-3.00983 -0.712509,-1.17915 -1.128689,-2.47522 -1.248501,-3.8882 -0.0995,-1.1735 0.0087,-2.25301 0.324613,-3.23852 0.340358,-1.0113 0.719365,-1.88074 1.137059,-2.60833 0.444119,-0.72942 0.861781,-1.30042 1.252907,-1.71299 0.41556,-0.43836 0.647753,-0.68332 0.696659,-0.73489 0.122244,-0.12893 0.261781,-0.21089 0.418573,-0.24585 0.181303,-0.0608 0.351366,-0.0967 0.510188,-0.10767 0.423618,-0.0294 0.791229,0.0655 1.102756,0.28484 0.311527,0.21929 0.483556,0.52052 0.516047,0.9037 0.03655,0.43108 -0.10508,0.80225 -0.424899,1.11352 -0.05094,0.0276 -0.222046,0.20813 -0.51337,0.54151 -0.293315,0.30943 -0.60298,0.74044 -0.928995,1.29303 -0.328006,0.52865 -0.62041,1.16323 -0.877172,1.90374 -0.230338,0.73868 -0.308955,1.53909 -0.23585,2.40126 0.115751,1.36509 0.544179,2.49168 1.285287,3.37977 0.767571,0.88624 1.719484,1.59108 2.855779,2.11449 1.134265,0.49946 2.374453,0.83499 3.720573,1.00658 1.34409,0.14765 2.67806,0.17555 4.00184,0.0837 2.46224,-0.17083 4.73519,-0.68987 6.81882,-1.55713 2.1101,-0.86909 3.92186,-1.95839 5.43536,-3.26789 1.51351,-1.30949 2.66759,-2.77473 3.46226,-4.39571 0.79467,-1.62097 1.1199,-3.28165 0.97572,-4.98202 -0.1584,-1.86802 -0.88505,-3.52799 -2.17998,-4.9799 -1.29691,-1.47586 -2.98391,-2.68376 -5.06098,-3.6237 -2.0791,-0.96388 -4.48107,-1.65242 -7.2059,-2.06562 -2.69837,-0.41504 -5.55668,-0.51785 -8.57493,-0.30845 -2.276908,0.15797 -4.651662,0.57568 -7.12422,1.25311 -2.448124,0.65165 -4.848423,1.55292 -7.200937,2.70382 -2.352552,1.15091 -4.578863,2.53395 -6.678934,4.14913 -2.073646,1.61335 -3.861213,3.4598 -5.362663,5.53934 -1.50348,2.05559 -2.655738,4.32771 -3.456694,6.81636 -0.774493,2.48681 -1.039916,5.16715 -0.796232,8.04103 0.221347,2.61044 0.818525,4.94186 1.791495,6.99426 0.999434,2.05057 2.284068,3.8525 3.8539,5.40578 1.567803,1.52934 3.355581,2.82661 5.363376,3.8918 2.034259,1.06335 4.183654,1.91396 6.448186,2.55181 2.288926,0.61207 4.654308,1.02612 7.096108,1.24215 31.510145,2.66365 41.914525,-26.37617 37.505135,-15.14088 -0.0439,0.11187 0.007,0.24042 -0.009,0.36199 -0.0161,0.12157 -0.0591,0.24501 -0.1284,0.37026 z"
         id="path56"
         aria-label="C" /><g
         id="g70"
         transform="matrix(0.54946494,0,0,0.34794255,-449.54522,328.87943)"><g
           id="g69"
           transform="translate(108.55322,2.309653)"><path
             style="color:#000000;fill:#000000;stroke-width:1.18018;-inkscape-stroke:none"
             d="m 883.05584,-554.33086 -0.52985,1.60864 c -2.56914,7.81319 -6.07956,12.1603 -9.60554,13.67918 -1.76299,0.75944 -3.5484,0.8104 -5.23053,0.11895 -1.68215,-0.69149 -3.23686,-2.17884 -4.32546,-4.16947 -1.0791,-1.97261 -1.48988,-4.04415 -1.18292,-5.79545 0.30697,-1.75133 1.26721,-3.18645 2.7597,-4.27156 2.98488,-2.17051 8.14027,-3.00816 15.32109,-1.7259 0.38532,0.0687 0.77646,0.1442 1.17342,0.22549 z m -0.31347,0.12056 c -6.55879,-1.06172 -13.95331,1.44806 -16.43551,3.25313 -1.28295,0.93282 -1.98679,2.09111 -2.19301,3.26757 -0.20622,1.17643 0.02,2.36622 0.77423,3.74524 0.75454,1.38012 1.67491,2.25437 2.82559,2.72737 1.15069,0.47299 2.55769,0.49337 4.07053,-0.1583 2.77544,-1.19557 8.55827,-6.45996 10.95817,-12.835 z"
             id="path57" /><g
             id="g63"
             transform="matrix(1.3296376,0,0,1.0348967,-203.63358,71.325924)"><path
               style="color:#000000;fill:#f2f2f2;stroke-width:1.17617;-inkscape-stroke:none"
               d="m 817.17669,-604.67144 c 1.85072,-7.3414 6.70706,-13.55745 9.05649,-15.10894 1.21423,-0.80198 2.36344,-0.88254 3.32564,-0.44081 0.96218,0.44173 1.75993,1.33612 2.48634,2.87898 0.72705,1.54389 1.00926,2.97726 0.8988,4.42462 -0.11045,1.44735 -0.66246,2.90691 -1.75928,4.10184 -2.01221,2.19215 -8.27709,5.21793 -14.00799,4.14431 z"
               id="path58" /><path
               style="color:#000000;fill:#f2f2f2;stroke-width:1.17617;-inkscape-stroke:none"
               d="m 818.41062,-604.40621 c -1.85072,-7.3414 -6.70706,-13.55745 -9.05649,-15.10894 -1.21423,-0.80198 -2.36344,-0.88254 -3.32564,-0.44081 -0.96218,0.44173 -1.75993,1.33612 -2.48634,2.87898 -0.72705,1.54389 -1.00926,2.97726 -0.8988,4.42462 0.11045,1.44735 0.66246,2.90691 1.75928,4.10184 2.01221,2.19215 8.27709,5.21793 14.00799,4.14431 z"
               id="path59" /><path
               style="color:#000000;fill:#f2f2f2;stroke-width:1.17617;-inkscape-stroke:none"
               d="m 817.15974,-606.33572 c 1.85072,7.3414 6.70706,13.55745 9.05649,15.10894 1.21423,0.80198 2.36344,0.88254 3.32564,0.44081 0.96218,-0.44173 1.75993,-1.33612 2.48634,-2.87898 0.72705,-1.54389 1.00926,-2.97726 0.8988,-4.42462 -0.11045,-1.44735 -0.66246,-2.90691 -1.75928,-4.10184 -2.01221,-2.19215 -8.27709,-5.21793 -14.00799,-4.14431 z"
               id="path60" /><path
               style="color:#000000;fill:#f2f2f2;stroke-width:1.17617;-inkscape-stroke:none"
               d="m 818.39367,-606.60095 c -1.85072,7.3414 -6.70706,13.55745 -9.05649,15.10894 -1.21423,0.80198 -2.36344,0.88254 -3.32564,0.44081 -0.96218,-0.44173 -1.75993,-1.33612 -2.48634,-2.87898 -0.72705,-1.54389 -1.00926,-2.97726 -0.8988,-4.42462 0.11045,-1.44735 0.66246,-2.90691 1.75928,-4.10184 2.01221,-2.19215 8.27709,-5.21793 14.00799,-4.14431 z"
               id="path61" /><path
               style="color:#000000;fill:#000000;-inkscape-stroke:none"
               d="m 817.8121,-604.34012 -0.7892,1.28211 c -3.83461,6.22328 -5.25246,11.56861 -4.95708,15.51675 0.14769,1.97406 0.73092,3.61488 1.72695,4.79178 0.99605,1.1769 2.42889,1.84137 4.00533,1.83297 1.5623,-0.008 2.9545,-0.67004 3.9065,-1.82168 0.952,-1.15165 1.4884,-2.73657 1.6304,-4.62842 0.2842,-3.78372 -0.9829,-8.86614 -4.2267,-14.72328 -0.174,-0.31434 -0.3541,-0.63056 -0.5397,-0.94915 z m 0.035,0.34378 c 2.8967,5.40439 3.9241,13.34711 3.6877,16.49367 -0.1221,1.62624 -0.5795,2.84105 -1.219,3.6147 -0.6395,0.77363 -1.4358,1.16256 -2.5279,1.16838 -1.0929,0.006 -1.93734,-0.39047 -2.61869,-1.19554 -0.68135,-0.80508 -1.17752,-2.06794 -1.30425,-3.7619 -0.23251,-3.10772 0.95778,-10.9668 3.98214,-16.31931 z"
               id="path62" /><path
               style="color:#000000;fill:#f2f2f2;-inkscape-stroke:none"
               d="m 817.8443,-603.8974 c 2.8968,5.4044 3.9242,13.34711 3.6878,16.49367 -0.1221,1.62625 -0.5795,2.84106 -1.219,3.6147 -0.6395,0.77364 -1.4358,1.16256 -2.5279,1.16838 -1.0929,0.006 -1.93735,-0.39047 -2.6187,-1.19554 -0.68135,-0.80507 -1.17751,-2.06793 -1.30425,-3.7619 -0.23251,-3.10771 0.95778,-10.96679 3.98205,-16.31931 z"
               id="path63" /></g><g
             id="g65"
             transform="matrix(1.3296376,0,0,-1.0348967,-203.63477,-1181.6486)"><path
               style="color:#000000;fill:#000000;-inkscape-stroke:none"
               d="m 817.8121,-604.34012 -0.7892,1.28211 c -3.83461,6.22328 -5.25246,11.56861 -4.95708,15.51675 0.14769,1.97406 0.73092,3.61488 1.72695,4.79178 0.99605,1.1769 2.42889,1.84137 4.00533,1.83297 1.5623,-0.008 2.9545,-0.67004 3.9065,-1.82168 0.952,-1.15165 1.4884,-2.73657 1.6304,-4.62842 0.2842,-3.78372 -0.9829,-8.86614 -4.2267,-14.72328 -0.174,-0.31434 -0.3541,-0.63056 -0.5397,-0.94915 z m 0.035,0.34378 c 2.8967,5.40439 3.9241,13.34711 3.6877,16.49367 -0.1221,1.62624 -0.5795,2.84105 -1.219,3.6147 -0.6395,0.77363 -1.4358,1.16256 -2.5279,1.16838 -1.0929,0.006 -1.93734,-0.39047 -2.61869,-1.19554 -0.68135,-0.80508 -1.17752,-2.06794 -1.30425,-3.7619 -0.23251,-3.10772 0.95778,-10.9668 3.98214,-16.31931 z"
               id="path64" /><path
               style="color:#000000;fill:#f2f2f2;-inkscape-stroke:none"
               d="m 817.8443,-603.8974 c 2.8968,5.4044 3.9242,13.34711 3.6878,16.49367 -0.1221,1.62625 -0.5795,2.84106 -1.219,3.6147 -0.6395,0.77364 -1.4358,1.16256 -2.5279,1.16838 -1.0929,0.006 -1.93735,-0.39047 -2.6187,-1.19554 -0.68135,-0.80507 -1.17751,-2.06793 -1.30425,-3.7619 -0.23251,-3.10771 0.95778,-10.96679 3.98205,-16.31931 z"
               id="path65" /></g><path
             style="color:#000000;fill:#000000;stroke-width:1.18018;-inkscape-stroke:none"
             d="m 884.17763,-554.89383 0.52985,1.60864 c 2.56914,7.81319 6.07956,12.1603 9.60554,13.67918 1.76299,0.75944 3.5484,0.8104 5.23053,0.11895 1.68215,-0.69149 3.23686,-2.17884 4.32546,-4.16947 1.0791,-1.97261 1.48988,-4.04415 1.18292,-5.79545 -0.30697,-1.75133 -1.26721,-3.18645 -2.7597,-4.27156 -2.98488,-2.17051 -8.14027,-3.00816 -15.32109,-1.7259 -0.38532,0.0687 -0.77646,0.1442 -1.17342,0.22549 z m 0.31347,0.12056 c 6.55879,-1.06172 13.95331,1.44806 16.43551,3.25313 1.28295,0.93282 1.98679,2.09111 2.19301,3.26757 0.20622,1.17643 -0.02,2.36622 -0.77423,3.74524 -0.75454,1.38012 -1.67491,2.25437 -2.82559,2.72737 -1.15069,0.47299 -2.55769,0.49337 -4.07053,-0.1583 -2.77544,-1.19557 -8.55827,-6.45996 -10.95817,-12.835 z"
             id="path66" /><path
             style="color:#000000;fill:#000000;stroke-width:1.18018;-inkscape-stroke:none"
             d="m 883.71298,-556.40428 0.57152,-1.5745 c 2.77153,-7.64763 6.39287,-11.77365 9.95574,-13.07278 1.78144,-0.64956 3.56673,-0.58983 5.2294,0.20531 1.66269,0.79518 3.17721,2.37768 4.21283,4.43416 1.0266,2.03789 1.38283,4.1332 1.03029,5.86406 -0.35255,1.73088 -1.34957,3.10533 -2.86925,4.09706 -3.03927,1.98376 -8.2124,2.50123 -15.35383,0.77498 -0.38321,-0.0925 -0.77206,-0.19221 -1.16657,-0.29803 z m 0.31637,-0.10104 c 6.52568,1.46734 13.97988,-0.58212 16.50731,-2.2319 1.30632,-0.85255 2.03991,-1.96628 2.27675,-3.129 0.23684,-1.1627 0.0419,-2.36554 -0.67559,-3.79019 -0.71781,-1.42576 -1.61455,-2.35634 -2.75192,-2.90027 -1.13737,-0.54392 -2.5427,-0.65148 -4.07137,-0.0941 -2.80447,1.02259 -8.72039,5.92432 -11.28518,12.14545 z"
             id="path67" /><path
             style="color:#000000;fill:#000000;stroke-width:1.18018;-inkscape-stroke:none"
             d="m 883.68136,-556.08815 -0.57152,-1.5745 c -2.77153,-7.64763 -6.39287,-11.77365 -9.95574,-13.07278 -1.78144,-0.64956 -3.56673,-0.58983 -5.2294,0.20531 -1.66269,0.79518 -3.17721,2.37768 -4.21283,4.43416 -1.0266,2.03789 -1.38283,4.1332 -1.03029,5.86406 0.35255,1.73088 1.34957,3.10533 2.86925,4.09706 3.03927,1.98376 8.2124,2.50123 15.35383,0.77498 0.38321,-0.0925 0.77206,-0.19221 1.16657,-0.29803 z m -0.31637,-0.10104 c -6.52568,1.46734 -13.97988,-0.58212 -16.50731,-2.2319 -1.30632,-0.85255 -2.03991,-1.96628 -2.27675,-3.129 -0.23684,-1.1627 -0.0419,-2.36554 0.67559,-3.79019 0.71781,-1.42576 1.61455,-2.35634 2.75192,-2.90027 1.13737,-0.54392 2.5427,-0.65148 4.07137,-0.0941 2.80447,1.02259 8.72039,5.92432 11.28518,12.14545 z"
             id="path68" /><path
             style="fill:#f5d409;fill-opacity:1;stroke:none;stroke-width:3.08409;stroke-linecap:round;stroke-linejoin:round;stroke-opacity:1;paint-order:stroke fill markers"
             id="path69"
             transform="matrix(0.99742027,0.07178308,-0.02833354,0.99959852,0,0)"
             d="m 874.23735,-618.54932 a 5.8580737,9.7680283 0 0 1 -5.71229,9.76501 5.8580737,9.7680283 0 0 1 -5.99661,-9.27899 5.8580737,9.7680283 0 0 1 5.41383,-10.22683 5.8580737,9.7680283 0 0 1 6.26606,8.76998" /></g></g></g></g></svg>
