<?xml version="1.0" encoding="UTF-8" standalone="no"?>
<!-- Created with Inkscape (http://www.inkscape.org/) -->

<svg
   width="270.93338mm"
   height="414.72507mm"
   viewBox="0 0 270.93338 414.72507"
   version="1.1"
   id="svg1"
   xml:space="preserve"
   inkscape:version="1.4 (e7c3feb100, 2024-10-09)"
   sodipodi:docname="E_404.svg"
   inkscape:export-filename="e404.svg"
   inkscape:export-xdpi="96"
   inkscape:export-ydpi="96"
   xmlns:inkscape="http://www.inkscape.org/namespaces/inkscape"
   xmlns:sodipodi="http://sodipodi.sourceforge.net/DTD/sodipodi-0.dtd"
   xmlns="http://www.w3.org/2000/svg"
   xmlns:svg="http://www.w3.org/2000/svg"><sodipodi:namedview
     id="namedview1"
     pagecolor="#ffffff"
     bordercolor="#000000"
     borderopacity="0.25"
     inkscape:showpageshadow="2"
     inkscape:pageopacity="0.0"
     inkscape:pagecheckerboard="0"
     inkscape:deskcolor="#d1d1d1"
     inkscape:document-units="mm"
     inkscape:zoom="0.77306424"
     inkscape:cx="732.15132"
     inkscape:cy="654.5381"
     inkscape:window-width="2400"
     inkscape:window-height="1327"
     inkscape:window-x="0"
     inkscape:window-y="0"
     inkscape:window-maximized="1"
     inkscape:current-layer="layer1"
     showguides="true"><inkscape:page
       x="0"
       y="0"
       width="270.93338"
       height="414.72507"
       id="page2"
       margin="0"
       bleed="0" /></sodipodi:namedview><defs
     id="defs1" /><g
     inkscape:label="Capa 1"
     inkscape:groupmode="layer"
     id="layer1"
     transform="translate(-737.06606,81.560403)"><rect
       style="fill:#ffffff;stroke-width:0.923882;stroke-linecap:round;stroke-linejoin:round;stroke-miterlimit:3.5"
       id="rect1"
       width="269.12088"
       height="410.86517"
       x="737.09985"
       y="-80.278267"
       inkscape:export-filename="e_404.webp"
       inkscape:export-xdpi="96"
       inkscape:export-ydpi="96" /><path
       id="rect15"
       style="fill:#000000;stroke:none;stroke-width:0.42901;stroke-linecap:round;stroke-linejoin:round;stroke-miterlimit:3.5;stroke-dasharray:none"
       d="m 872.53279,-81.560396 -135.46667,5.16e-4 V 44.249495 c 0,69.195145 0.0524,125.809375 0.11679,125.809375 0.0371,0 3.40027,-0.85834 5.68131,-1.4366 -0.41988,0.17843 -0.82323,0.36424 -1.2082,0.55862 -1.47866,0.73826 -2.60488,1.56168 -3.37809,2.46961 -0.77326,0.908 -1.14358,1.87121 -1.11104,2.88872 l 0.1664,5.20846 c 0.0319,0.99722 0.45629,1.75324 1.27227,2.26808 0.81469,0.49804 1.96994,0.74362 3.46491,0.73691 1.49269,-0.023 3.27429,-0.30128 5.34386,-0.83406 2.95173,-0.75987 5.25001,-1.71118 6.8988,-2.85512 1.64731,-1.15947 2.45238,-2.45427 2.41536,-3.88555 l -0.0357,-1.36736 -7.37216,1.88412 0.0419,1.4919 c 0.01,0.34226 -0.0814,0.63663 -0.27285,0.88263 -0.15861,0.23759 -0.40049,0.44747 -0.72606,0.62942 -0.29323,0.15727 -0.63669,0.28645 -1.03094,0.38758 -0.39435,0.10115 -0.74097,0.14075 -1.03973,0.11885 -0.29883,-0.0219 -0.53419,-0.126 -0.70538,-0.31212 -0.17124,-0.18617 -0.26176,-0.45858 -0.27234,-0.81752 l -0.0801,-2.71922 11.42256,-2.91455 -0.0734,-2.83859 c -0.0266,-1.02903 -0.40946,-1.8039 -1.14877,-2.3244 -0.70717,-0.52928 -1.77136,-0.79569 -3.1936,-0.79892 -0.34661,-0.003 -0.71573,0.0115 -1.10691,0.0424 1.93825,-0.49572 6.27543,-1.59963 8.38553,-2.13838 l 0.35089,14.08338 7.94163,-2.0438 -0.20515,-9.15551 c 0.64034,-0.58853 1.34748,-1.10398 2.12131,-1.54616 0.77356,-0.44203 1.61462,-0.77825 2.52233,-1.00873 0.48605,-0.12341 0.94038,-0.20622 1.36271,-0.24804 0.45423,-0.0663 0.85994,-0.10409 1.21749,-0.11317 l -0.0775,-3.85248 c 0.78355,-0.19962 1.20623,-0.30781 2.04484,-0.52142 l 0.2744,14.06219 7.85327,-2.02106 -0.15503,-9.11676 c 0.63539,-0.58488 1.33624,-1.09688 2.10271,-1.53582 0.7662,-0.43879 1.59837,-0.77204 2.49597,-0.99994 0.48064,-0.12204 0.92941,-0.20353 1.34669,-0.24443 0.44892,-0.0652 0.84989,-0.10217 1.20303,-0.11059 l -0.0563,-3.85093 c 1.94933,-0.49429 4.97692,-1.24127 7.23935,-1.81281 -0.49709,0.19824 -0.97888,0.4029 -1.42782,0.62116 -1.43183,0.70354 -2.54267,1.49679 -3.33209,2.3797 -0.75753,0.87488 -1.12933,1.8224 -1.11467,2.8422 l 0.077,5.33146 c 0.0146,1.01577 0.40904,1.76322 1.18339,2.24327 0.80548,0.47143 1.92619,0.69181 3.36104,0.66146 1.46493,-0.0385 3.17984,-0.31037 5.14387,-0.81597 1.96149,-0.50495 3.65012,-1.10855 5.06739,-1.81074 1.44777,-0.70979 2.56228,-1.50261 3.34398,-2.37815 0.78162,-0.87546 1.16808,-1.81839 1.15962,-2.82929 l -0.0444,-5.30562 c -0.008,-1.01488 -0.40996,-1.76084 -1.20561,-2.2381 -0.79641,-0.47772 -1.9246,-0.70193 -3.38481,-0.67283 -0.40041,0.006 -0.82748,0.0353 -1.2702,0.0786 3.06172,-0.7713 5.51107,-1.37767 8.81393,-2.20762 l 0.10283,13.88391 7.65742,-1.97043 -0.0455,-9.02994 c 0.62439,-0.57675 1.31178,-1.08086 2.06189,-1.51256 0.74986,-0.43157 1.56243,-0.75862 2.43758,-0.98082 0.46862,-0.11899 0.90595,-0.1978 1.31206,-0.23668 0.43714,-0.0628 0.82708,-0.0979 1.17048,-0.1049 l -0.0103,-3.72691 c 16.10326,-4.03234 32.61049,-8.20771 41.44657,-10.38128 10.18646,-2.50574 21.97365,-5.41181 26.19375,-6.458 l 7.67291,-1.90221 V 48.798572 -30.230713 h 38.03386 38.03333 v 80.317578 80.317065 l -2.54248,6.26783 c -5.0071,12.34224 -18.66733,45.67518 -24.25433,59.18399 -3.1296,7.56708 -8.69153,21.02116 -12.35997,29.89791 -5.83495,14.11921 -18.8603,45.52248 -29.08194,70.12802 l -55.5563,-0.002 6.91327,-10.47843 6.38359,1.51516 13.93197,-21.76198 -6.01876,-1.24334 38.51393,-57.89414 c 0.28932,-0.4012 0.5787,-0.76957 0.86765,-1.21336 0.0407,-0.0625 0.935,-1.49031 1.03043,-1.64021 l 1.08727,-1.63401 -0.0558,-0.007 c 4.31462,-6.81723 28.52273,-45.40333 30.32838,-48.26475 1.9284,-3.05593 4.50065,-7.06718 5.71645,-8.91367 4.6574,-7.07371 4.30524,-6.32119 4.49584,-9.60716 0.0928,-1.60073 0.29604,-3.68432 0.45114,-4.63021 0.7187,-4.383 1.15892,-14.39469 1.01182,-23.01875 -0.0807,-4.72942 -0.26486,-9.194278 -0.40876,-9.921878 -0.144,-0.72761 -0.34553,-5.966357 -0.44803,-11.641667 -0.1857,-10.279988 -0.18412,-10.325703 0.41858,-12.170833 0.4764,-1.45856 0.63109,-2.651151 0.72709,-5.613611 0.1082,-3.32667 0.17751,-3.779329 0.59841,-3.912939 0.5193,-0.16481 0.79623,-1.115413 1.46503,-5.025533 0.224,-1.30969 0.75098,-3.750469 1.17098,-5.423959 0.4199,-1.67349 1.08515,-4.88818 1.47795,-7.14375 0.7029,-4.035509 0.71145,-4.224467 0.53795,-11.838037 -0.284,-12.462675 -0.99453,-18.575909 -2.47943,-21.336682 -0.7117,-1.323235 -0.79912,-1.383049 -5.74952,-3.9201739 -4.6257,-2.370694 -5.16017,-2.7195359 -6.69417,-4.3702759 -2.6715,-2.874858 -2.84632,-3.7459634 -1.34152,-6.6889974 1.867,-3.651538 2.37997,-9.3121778 1.07177,-11.8328698 -1.2652,-2.437774 -3.55222,-4.24965 -6.11332,-4.843115 -0.58168,-0.134789 -1.31453,-0.199083 -2.11977,-0.202572 -2.4157,-0.01046 -5.48627,0.526479 -7.10499,1.348755 -1.9759,1.003645 -2.63504,1.640202 -2.85874,2.759005 -0.1355,0.677144 -0.0336,0.962261 0.55604,1.551843 0.6691,0.669127 0.70985,0.831298 0.55035,2.200383 -0.0947,0.812897 -0.31154,1.8660504 -0.48214,2.3404254 -0.2615,0.727267 -0.24143,0.9310956 0.12867,1.3012126 0.4089,0.408861 0.37476,0.5534327 -0.49454,2.1078817 -1.0601,1.895601 -1.08937,2.774401 -0.10077,3.003951 0.5376,0.124846 0.67663,0.3373112 0.74363,1.1353312 0.0452,0.53995595 0.18897,0.98185221 0.31987,0.98185221 0.1313,0 0.23048,0.32742117 0.23048,0.72760417 -0.015,1.42528602 0.49239,3.33248372 0.98599,3.70623372 0.3651,0.276452 0.96831,0.3400214 2.25671,0.2382284 l 1.75854,-0.1390097 0.13333,0.8423259 c 0.1718,1.085226 -0.27112,1.5284651 -2.41742,2.4205241 -0.9225,0.383424 -3.04491,1.3627018 -4.71651,2.1755778 -2.3937,1.1641035 -3.17296,1.6808725 -3.67006,2.4339595 -1.4032,2.126015 -1.97469,6.542643 -3.03289,23.445598 -0.1549,2.473854 -0.52176,6.998225 -0.81546,10.054166 -0.3157,3.28516 -0.57613,8.368067 -0.63613,12.435417 -0.0561,3.78354 -0.21582,7.458083 -0.35502,8.165393 -0.2009,1.02129 -0.14383,1.756565 0.27647,3.571875 0.5706,2.46496 1.37773,3.633537 3.41013,4.938717 0.9274,0.59563 0.95846,0.669277 1.13326,2.683557 0.2471,2.848318 1.10451,10.530956 1.88981,16.931266 0.6311,5.14373 0.96319,13.87981 1.21439,31.95102 l 0.0512,3.68298 -2.23449,2.16059 c -1.6286,1.57465 -2.58997,2.28578 -3.54707,2.62361 -2.457,0.86723 -3.03629,1.20307 -3.56309,2.06706 -0.2895,0.47482 -0.5266,1.17615 -0.5271,1.55805 -9e-4,0.61372 -70.03543,51.14102 -74.88793,54.25198 -0.0236,0.0151 -0.0285,0.0293 -0.0517,0.0444 l -69.17045,50.61345 -19.09651,17.13281 16.24552,3.85661 -32.57527,31.34589 v 0.0227 l -7.17496,0.12466 v 37.29023 l 271.11237,-0.12466 -0.01,-34.54518 h 0.01 V 121.6396 -81.560396 Z m 56.21362,150.852291 c 0.0262,-0.02052 0.0567,0.0049 0.0925,0.07751 0.0716,0.145184 0.16359,0.479512 0.28164,1.013892 0.186,0.84009 0.29109,1.666954 0.23409,1.837614 -0.1649,0.49464 -0.78817,-2.02979 -0.67437,-2.7311 0.0181,-0.110937 0.0399,-0.177405 0.0661,-0.19792 z m 17.34468,10.464477 c 0.2697,0.30075 1.18472,3.938733 1.85002,7.355623 0.3117,1.60073 0.97017,4.705331 1.46347,6.899321 0.5568,2.47644 1.2547,7.029104 1.8402,12.005984 1.1912,10.12462 1.3652,12.36735 1.1529,14.82907 -0.4301,4.98741 -0.54559,8.91144 -0.28939,9.82679 0.3616,1.29169 -0.19456,2.49129 -2.18126,4.70617 -1.5872,1.76944 -2.25258,2.98063 -2.25258,4.09794 0,0.39724 -0.0837,2.0292 -1.29552,2.21227 -0.34562,0.0522 -5.17044,3.36286 -11.66182,8.10907 6.0814,-6.39837 9.69486,-11.07389 8.5571,-11.9786 -0.61879,-0.49204 -0.76073,-1.11849 -0.41703,-1.62781 0.5742,-0.85045 0.61847,-1.14765 0.53847,-3.63853 -0.0479,-1.49175 -0.0211,-2.71214 0.0599,-2.71198 0.2112,4.3e-4 1.06265,-24.08128 1.05265,-29.897403 -0.005,-4.16331 0.39433,-10.270105 1.21543,-18.600415 0.0976,-0.98964 0.26292,-1.70401 0.36742,-1.5875 z M 826.96554,147.36878 c -0.41703,0.21025 -0.81127,0.44069 -1.16633,0.70694 -0.8752,0.64014 -1.74986,1.47356 -2.62362,2.5001 l -0.0114,-2.25516 c 1.47075,-0.36888 2.32296,-0.58142 3.80131,-0.95188 z m -23.37893,8.2765 c 0.19891,-0.014 0.36998,-0.003 0.51366,0.0336 0.28711,0.0568 0.47976,0.20244 0.57775,0.43667 0.12952,0.20997 0.19617,0.49242 0.19998,0.84749 l 0.0625,5.84719 c 0.004,0.3537 -0.056,0.6752 -0.17983,0.9648 -0.0924,0.26538 -0.27994,0.50682 -0.56328,0.7245 -0.28354,0.20164 -0.67914,0.3676 -1.18597,0.49764 -0.507,0.13009 -0.90378,0.16755 -1.19062,0.11214 -0.28712,-0.0715 -0.49552,-0.21141 -0.62529,-0.42013 -0.13,-0.22485 -0.1973,-0.51463 -0.20154,-0.86868 l -0.0698,-5.85287 c -0.004,-0.35542 0.0555,-0.67046 0.17983,-0.94516 0.12414,-0.29089 0.32873,-0.53759 0.6134,-0.73949 0.28446,-0.21805 0.68111,-0.39148 1.18959,-0.52038 0.25416,-0.0644 0.48064,-0.10334 0.67955,-0.11731 z m -14.64407,1.24695 c -0.56688,0.25322 -1.08363,0.55016 -1.54564,0.89504 -0.89265,0.6499 -1.78255,1.49519 -2.66909,2.53524 l -0.0398,-2.33991 -7.18406,1.8154 c 3.79552,-0.96673 3.90045,-0.99646 9.03924,-2.30477 0.55504,-0.14131 1.8017,-0.44915 2.39934,-0.601 z m -17.27595,4.39457 c -0.51994,0.24188 -0.99792,0.51986 -1.4273,0.83974 -0.9005,0.65427 -1.79697,1.50465 -2.68924,2.55075 l -0.0522,-2.32751 c 1.27291,-0.32455 2.72347,-0.69468 4.16873,-1.06298 z m -23.55153,8.68835 c 0.33159,-0.002 0.58234,0.0831 0.75293,0.25425 0.20345,0.16272 0.31081,0.43235 0.32142,0.80874 l 0.0398,1.42265 -4.04936,1.03095 -0.0351,-1.20303 c -0.013,-0.44223 0.0594,-0.79948 0.21756,-1.07074 0.15769,-0.28765 0.36692,-0.51377 0.62786,-0.67903 0.29389,-0.17359 0.63854,-0.31053 1.03405,-0.41082 0.42835,-0.10862 0.79215,-0.1597 1.09089,-0.15297 z m 133.76083,9.20461 c 2.061,-0.46147 -9.72582,10.13009 -22.53093,24.66309 -0.18386,0.14221 -0.36008,0.262 -0.54518,0.40773 -4.13089,3.27258 -8.50582,7.31667 -13.1837,12.21838 l -44.84015,46.98524 c -6.97957,7.31353 -12.81803,14.209 -17.38137,20.59978 -3.10961,4.35489 -5.47534,8.3009 -7.09104,11.82202 l -17.53691,-5.2e-4 28.44374,-28.85974 5.19658,1.23352 17.92759,-18.51928 -4.97076,-1.02681 54.20393,-54.67987 -0.006,-5.2e-4 c 14.47824,-10.06468 21.05528,-14.56121 22.31389,-14.84302 z m 36.32595,2.0283 c -1.03435,3.99585 -3.49396,7.68691 -10.30429,19.01073 l -60.08677,57.43163 -15.93701,19.96778 19.82825,4.7072 -10.61899,13.55318 -32.44763,-10e-4 c 1.48768,-1.27188 2.98961,-2.60188 4.51032,-4.01319 6.75667,-6.3003 13.31439,-13.38367 19.61223,-21.11448 L 873.4733,220.7705 c 1.07203,-1.31594 2.06275,-2.57943 2.98173,-3.79666 19.69543,-17.72817 39.26086,-34.18392 41.74681,-35.76578 z m -36.06034,14.53193 c -0.0334,0.0396 -0.0603,0.0772 -0.0935,0.11679 -0.0165,-0.006 -0.0309,-0.0137 -0.0475,-0.0196 0.0505,-0.037 0.0905,-0.0601 0.14107,-0.0971 z m -46.83228,12.30829 -40.07404,38.56147 -7.72873,-1.5968 z m 32.23576,1.25574 c 1.02126,0.14418 1.23822,0.81553 0.64389,2.02417 -0.49986,1.15994 -1.37429,2.51422 -2.6324,4.069 -1.21379,1.5053 -2.36045,2.87937 -3.43648,4.11758 l -41.45639,47.70406 c -1.40507,1.61682 -3.18711,3.56492 -5.35936,5.85804 -2.05942,2.22916 -4.17496,4.20887 -6.34122,5.92677 -2.03794,1.63247 -3.66728,2.30431 -4.86792,2.00298 -1.14692,-0.28785 -1.20801,-1.37812 -0.19637,-3.252 1.14906,-1.9503 2.65428,-4.05602 4.50464,-6.31021 1.91822,-2.32637 3.58836,-4.27782 5.02191,-5.86941 l 42.37003,-47.04054 c 1.10164,-1.22308 2.36048,-2.56852 3.77134,-4.03127 1.45466,-1.51281 2.86982,-2.77766 4.25142,-3.80287 1.4699,-1.07723 2.70826,-1.54013 3.72691,-1.3963 z m 30.82964,7.91993 -31.6575,44.15751 -9.31622,-1.92495 z m -152.26461,83.19492 h 7.02283 c 1.25651,0 2.28903,0.28863 3.098,0.86558 0.80899,0.55634 1.41124,1.38064 1.80713,2.47272 0.39588,1.07147 0.59376,2.37994 0.59376,3.92534 0,1.9369 -0.26637,3.42063 -0.79995,4.45089 -0.53359,1.00966 -1.2566,1.71018 -2.16886,2.10168 -0.91226,0.3915 -1.93666,0.58705 -3.07268,0.58705 h -1.8588 v 10.63242 h -4.62143 z m 97.64934,0 h 4.20801 v 8.46874 c 0.51638,-0.53573 1.05014,-0.93723 1.60094,-1.2051 0.56801,-0.26787 1.11903,-0.40204 1.65261,-0.40204 0.56801,0 1.04951,0.13417 1.44539,0.40204 0.4131,0.26787 0.74899,0.64907 1.00717,1.1436 0.25819,0.47392 0.44744,1.03038 0.56793,1.66915 0.12048,0.63876 0.18087,1.31848 0.18087,2.03967 v 7.69617 c 0,1.11268 -0.12939,2.08103 -0.38758,2.90525 -0.24097,0.82421 -0.60222,1.47325 -1.08417,1.94717 -0.48195,0.45332 -1.07558,0.68006 -1.78129,0.68006 -0.5508,0 -1.10181,-0.14405 -1.65261,-0.43253 -0.53358,-0.30907 -1.0501,-0.72149 -1.54926,-1.23662 v 1.36012 h -4.20801 z m 141.57947,0 h 4.20801 v 25.03568 h -4.20801 v -1.39113 c -0.46472,0.53574 -0.94669,0.95856 -1.4459,1.26763 -0.49915,0.28848 -0.99844,0.43253 -1.49759,0.43253 -1.10157,0 -1.95349,-0.46337 -2.55591,-1.39061 -0.60243,-0.92724 -0.90382,-2.29759 -0.90382,-4.11086 v -7.38715 c 0,-1.11269 0.12889,-2.08104 0.38705,-2.90525 0.25817,-0.84482 0.64581,-1.50425 1.16221,-1.97817 0.51639,-0.47392 1.15316,-0.71107 1.91047,-0.71107 0.55082,0 1.07595,0.13417 1.5751,0.40204 0.49915,0.24726 0.95528,0.58738 1.36839,1.02009 z m -203.07339,0.64906 h 4.23437 v 3.49281 h -4.23437 z m 169.24135,1.0821 h 4.25969 v 5.43946 h 2.11718 v 3.3073 h -2.11718 v 9.2108 c 0,0.51513 0.12075,0.88594 0.36173,1.1126 0.25823,0.22666 0.57636,0.34003 0.95498,0.34003 0.2238,0 0.43029,-0.0104 0.6196,-0.031 0.18932,-0.0412 0.36182,-0.0719 0.51677,-0.0925 v 3.95583 c -0.2238,0.0412 -0.57695,0.0927 -1.05885,0.15451 -0.48197,0.0618 -0.9726,0.093 -1.47175,0.093 -1.11882,0 -1.97933,-0.19606 -2.58175,-0.58756 -0.60243,-0.3915 -1.02406,-0.95785 -1.26504,-1.69964 -0.22374,-0.7624 -0.33538,-1.67925 -0.33538,-2.75073 v -9.70535 h -1.44591 v -3.3073 h 1.44591 z m -200.77534,2.16369 v 6.64508 h 1.54926 c 0.56801,0 0.99826,-0.12378 1.29087,-0.37104 0.29261,-0.24727 0.48187,-0.61806 0.56793,-1.11259 0.10328,-0.49453 0.15503,-1.12328 0.15503,-1.88568 0,-0.63876 -0.0431,-1.19471 -0.12919,-1.66863 -0.0688,-0.49453 -0.24948,-0.88613 -0.54209,-1.1746 -0.29262,-0.28848 -0.74875,-0.43254 -1.36839,-0.43254 z m 30.34336,2.19419 1.00718,2.4107 c -0.17213,0.0618 -0.43038,0.18556 -0.77463,0.37104 -0.32704,0.16484 -0.67155,0.3505 -1.03301,0.55655 -0.22312,0.13355 -0.37992,0.24395 -0.55242,0.36019 0.39927,0.89816 0.60409,1.99013 0.60409,3.28662 0,1.29813 -0.19788,2.41106 -0.59376,3.3383 -0.37867,0.90664 -0.94694,1.60716 -1.70429,2.10168 -0.75734,0.49453 -1.7036,0.74155 -2.83962,0.74155 -0.83021,0 -1.53653,-0.16925 -2.18488,-0.41806 -0.0412,0.066 -0.1048,0.13771 -0.13901,0.20206 -0.12048,0.20606 -0.18086,0.44268 -0.18086,0.71055 0,0.24726 0.10351,0.44331 0.31005,0.58756 0.20655,0.14423 0.57643,0.25761 1.11001,0.34003 l 3.53726,0.55604 c 1.27371,0.18545 2.20323,0.69042 2.78846,1.51463 0.60243,0.82422 0.90382,1.88513 0.90382,3.18327 0,1.15389 -0.21513,2.12276 -0.64544,2.90577 -0.4131,0.783 -1.09299,1.37015 -2.03967,1.76165 -0.92947,0.41211 -2.169,0.61805 -3.71812,0.61805 -1.11881,0 -2.10009,-0.13366 -2.94349,-0.40153 -0.8262,-0.26787 -1.47158,-0.66988 -1.93632,-1.20561 -0.44752,-0.53575 -0.67127,-1.20558 -0.67127,-2.00918 0,-0.61816 0.11214,-1.17463 0.33589,-1.66915 0.24098,-0.47393 0.56773,-0.88581 0.98082,-1.2361 0.31637,-0.25753 0.6908,-0.45702 1.06299,-0.65887 -0.4624,-0.17838 -0.87864,-0.4184 -1.19218,-0.79375 -0.46473,-0.55634 -0.69711,-1.24647 -0.69711,-2.07068 0,-0.72119 0.18114,-1.39103 0.5426,-2.00918 0.27422,-0.44765 0.6275,-0.88814 1.01906,-1.32498 -0.4044,-0.40491 -0.76167,-0.86084 -1.01906,-1.42575 -0.39588,-0.92724 -0.59376,-2.04017 -0.59376,-3.3383 0,-1.33934 0.2065,-2.47254 0.6196,-3.39979 0.4131,-0.92724 1.01536,-1.62776 1.80712,-2.10168 0.80899,-0.47392 1.79026,-0.71107 2.94349,-0.71107 1.1016,0 2.03112,0.24754 2.78846,0.74207 0.28444,0.18573 0.51792,0.43226 0.75138,0.67903 0.22356,-0.42951 0.47316,-0.80507 0.77153,-1.08107 0.39588,-0.3709 0.92102,-0.74169 1.57509,-1.11259 z m -17.30178,0.77256 c 1.51469,0 2.64209,0.50498 3.38222,1.51463 0.75735,0.98906 1.13637,2.27674 1.13637,3.86334 v 8.34522 c 0,0.74179 0.009,1.39082 0.0258,1.94717 0.0344,0.55634 0.0684,1.04051 0.10284,1.45262 0.0516,0.4121 0.0947,0.76262 0.12919,1.0511 h -3.76928 c -0.0516,-0.47393 -0.11198,-0.9893 -0.18087,-1.54564 -0.0688,-0.55635 -0.1206,-0.88607 -0.15502,-0.98909 -0.17213,0.74179 -0.49888,1.40124 -0.98082,1.97818 -0.46474,0.57695 -1.09339,0.86558 -1.88516,0.86558 -0.75734,0 -1.3941,-0.21635 -1.91048,-0.64906 -0.51636,-0.43271 -0.90349,-0.97878 -1.16168,-1.63814 -0.25819,-0.67998 -0.38706,-1.3701 -0.38706,-2.07068 0,-1.11269 0.18062,-2.05034 0.54209,-2.81274 0.37866,-0.76239 0.86931,-1.40104 1.47174,-1.91617 0.60243,-0.51513 1.26507,-0.94782 1.98799,-1.29811 0.72292,-0.3709 1.4368,-0.7006 2.14251,-0.98908 v -1.79266 c 0,-0.30909 -0.0254,-0.57691 -0.077,-0.80357 -0.0516,-0.24726 -0.13787,-0.43291 -0.25838,-0.55655 -0.12049,-0.14423 -0.30111,-0.21653 -0.54209,-0.21653 -0.24097,0 -0.43022,0.0619 -0.56792,0.18552 -0.12049,0.12363 -0.20675,0.29889 -0.25838,0.52555 -0.0516,0.20605 -0.0861,0.44321 -0.10336,0.71107 l -0.10335,1.29811 -3.92431,-0.18552 c 0.0861,-2.14295 0.55945,-3.71925 1.42007,-4.72891 0.87783,-1.03026 2.18586,-1.54564 3.92431,-1.54564 z m 32.38614,0 c 0.61964,0 1.12753,0.18566 1.52342,0.55655 0.4131,0.35029 0.72311,0.84487 0.92966,1.48363 0.20655,0.61816 0.30954,1.32908 0.30954,2.13269 v 14.00121 h -4.18269 v -13.29066 c 0,-0.43272 -0.0599,-0.76244 -0.18035,-0.98909 -0.1205,-0.22666 -0.34425,-0.33951 -0.67128,-0.33951 -0.17213,0 -0.37862,0.0614 -0.6196,0.185 -0.22376,0.10303 -0.45614,0.25801 -0.69712,0.46406 v 13.9702 h -4.20852 v -17.86506 h 4.20852 v 1.79266 c 0.5508,-0.65937 1.11856,-1.17423 1.70378,-1.54513 0.60243,-0.37089 1.23056,-0.55655 1.88464,-0.55655 z m 9.40149,0 c 1.51469,0 2.64208,0.50498 3.38222,1.51463 0.75735,0.98906 1.13585,2.27674 1.13585,3.86334 v 8.34522 c 0,0.74179 0.009,1.39082 0.0258,1.94717 0.0344,0.55634 0.0689,1.04051 0.10335,1.45262 0.0516,0.4121 0.0947,0.76262 0.12919,1.0511 h -3.76979 c -0.0516,-0.47393 -0.11199,-0.9893 -0.18087,-1.54564 -0.0688,-0.55635 -0.12009,-0.88607 -0.15451,-0.98909 -0.17213,0.74179 -0.49939,1.40124 -0.98134,1.97818 -0.46473,0.57695 -1.09287,0.86558 -1.88464,0.86558 -0.75734,0 -1.3941,-0.21635 -1.91048,-0.64906 -0.51636,-0.43271 -0.90401,-0.97878 -1.1622,-1.63814 -0.25818,-0.67998 -0.38706,-1.3701 -0.38706,-2.07068 0,-1.11269 0.18063,-2.05034 0.54209,-2.81274 0.37867,-0.76239 0.86931,-1.40104 1.47174,-1.91617 0.60244,-0.51513 1.26508,-0.94782 1.988,-1.29811 0.72291,-0.3709 1.43731,-0.7006 2.14302,-0.98908 v -1.79266 c 0,-0.30909 -0.0259,-0.57691 -0.0775,-0.80357 -0.0516,-0.24726 -0.13735,-0.43291 -0.25786,-0.55655 -0.12049,-0.14423 -0.30163,-0.21653 -0.5426,-0.21653 -0.24098,0 -0.43023,0.0619 -0.56793,0.18552 -0.12048,0.12363 -0.20622,0.29889 -0.25786,0.52555 -0.0516,0.20605 -0.0861,0.44321 -0.10336,0.71107 l -0.10335,1.29811 -3.92431,-0.18552 c 0.0861,-2.14295 0.55945,-3.71925 1.42007,-4.72891 0.87783,-1.03026 2.18586,-1.54564 3.92431,-1.54564 z m 31.68902,0 c 1.10159,0 2.01387,0.22674 2.73678,0.68006 0.74014,0.45332 1.29064,1.12315 1.6521,2.00918 0.37868,0.88602 0.56844,1.97816 0.56844,3.27629 v 3.58531 h -5.99033 v 3.4308 c 0,0.45332 0.0431,0.82411 0.12919,1.11259 0.0861,0.28847 0.20682,0.49442 0.36173,0.61805 0.15492,0.12363 0.33554,0.18552 0.54209,0.18552 0.20655,0 0.38717,-0.0515 0.54209,-0.15452 0.17212,-0.12363 0.3015,-0.30929 0.38757,-0.55655 0.10327,-0.24727 0.15451,-0.58687 0.15451,-1.01958 v -1.88567 h 3.87315 v 1.73116 c 0,1.81326 -0.43888,3.1831 -1.31671,4.11034 -0.87783,0.90663 -2.09149,1.36013 -3.64061,1.36013 -1.08438,0 -2.0139,-0.22674 -2.78846,-0.68006 -0.77456,-0.47392 -1.36819,-1.15363 -1.78129,-2.03967 -0.41309,-0.90663 -0.6196,-1.98835 -0.6196,-3.24528 V 313.246 c 0,-1.27753 0.20651,-2.35925 0.6196,-3.24528 0.4131,-0.88602 1.00673,-1.55586 1.78129,-2.00918 0.79176,-0.47392 1.72129,-0.71107 2.78846,-0.71107 z m 32.48949,0 c 0.61965,0 1.12753,0.18566 1.52342,0.55655 0.4131,0.35029 0.72259,0.84487 0.92914,1.48363 0.20655,0.61816 0.31006,1.32908 0.31006,2.13269 v 14.00121 h -4.18269 v -13.29066 c 0,-0.43272 -0.0604,-0.76244 -0.18087,-0.98909 -0.12048,-0.22666 -0.34424,-0.33951 -0.67127,-0.33951 -0.17213,0 -0.37863,0.0614 -0.6196,0.185 -0.22376,0.10303 -0.45614,0.25801 -0.69712,0.46406 v 13.9702 h -4.20853 v -17.86506 h 4.20853 v 1.79266 c 0.5508,-0.65937 1.11907,-1.17423 1.70429,-1.54513 0.60243,-0.37089 1.23057,-0.55655 1.88464,-0.55655 z m 9.45265,0 c 1.06717,0 1.98807,0.21634 2.76263,0.64905 0.79177,0.43272 1.40317,1.08175 1.83348,1.94717 0.43031,0.86543 0.64543,1.94766 0.64543,3.2458 v 6.79958 c 0,1.29814 -0.21512,2.37986 -0.64543,3.24528 -0.43031,0.86542 -1.04171,1.51446 -1.83348,1.94717 -0.77456,0.43271 -1.69546,0.64906 -2.76263,0.64906 -1.06716,0 -1.99669,-0.21635 -2.78846,-0.64906 -0.77455,-0.43271 -1.37681,-1.08175 -1.80712,-1.94717 -0.4131,-0.86542 -0.6196,-1.94714 -0.6196,-3.24528 v -6.79958 c 0,-1.29814 0.2065,-2.38037 0.6196,-3.2458 0.43031,-0.86542 1.03257,-1.51445 1.80712,-1.94717 0.79177,-0.43271 1.7213,-0.64905 2.78846,-0.64905 z m 17.56327,0 c 1.1016,0 2.01387,0.22674 2.73679,0.68006 0.74013,0.45332 1.29115,1.12315 1.65261,2.00918 0.37867,0.88602 0.56792,1.97816 0.56792,3.27629 v 3.58531 h -5.98981 v 3.4308 c 0,0.45332 0.0426,0.82411 0.12867,1.11259 0.0861,0.28847 0.20682,0.49442 0.36174,0.61805 0.15491,0.12363 0.33553,0.18552 0.54208,0.18552 0.20655,0 0.38718,-0.0515 0.54209,-0.15452 0.17212,-0.12363 0.30151,-0.30929 0.38757,-0.55655 0.10327,-0.24727 0.15503,-0.58687 0.15503,-1.01958 v -1.88567 h 3.87263 v 1.73116 c 0,1.81326 -0.43888,3.1831 -1.31671,4.11034 -0.87783,0.90663 -2.09149,1.36013 -3.64061,1.36013 -1.08438,0 -2.0139,-0.22674 -2.78846,-0.68006 -0.77456,-0.47392 -1.36818,-1.15363 -1.78128,-2.03967 -0.4131,-0.90663 -0.61961,-1.98835 -0.61961,-3.24528 V 313.246 c 0,-1.27753 0.20651,-2.35925 0.61961,-3.24528 0.4131,-0.88602 1.00672,-1.55586 1.78128,-2.00918 0.79177,-0.47392 1.72129,-0.71107 2.78846,-0.71107 z m 14.30662,0 c 0.61965,0 1.12754,0.18566 1.52342,0.55655 0.4131,0.35029 0.72311,0.84487 0.92966,1.48363 0.20655,0.61816 0.30954,1.32908 0.30954,2.13269 v 14.00121 h -4.18269 v -13.29066 c 0,-0.43272 -0.0599,-0.76244 -0.18035,-0.98909 -0.12048,-0.22666 -0.34424,-0.33951 -0.67127,-0.33951 -0.17213,0 -0.37863,0.0614 -0.6196,0.185 -0.22377,0.10303 -0.45615,0.25801 -0.69712,0.46406 v 13.9702 h -4.20853 v -17.86506 h 4.20853 v 1.79266 c 0.55079,-0.65937 1.11855,-1.17423 1.70377,-1.54513 0.60244,-0.37089 1.23058,-0.55655 1.88464,-0.55655 z m 9.4015,0 c 1.06721,0 1.97081,0.19606 2.71094,0.58756 0.75732,0.3915 1.33368,0.98905 1.72961,1.79266 0.39587,0.78301 0.59376,1.78204 0.59376,2.99775 v 1.88567 h -4.0535 v -2.04019 c 0,-0.47393 -0.0426,-0.83433 -0.12867,-1.08159 -0.0688,-0.26787 -0.18095,-0.45353 -0.3359,-0.55655 -0.1377,-0.10303 -0.30969,-0.15451 -0.51624,-0.15451 -0.2065,0 -0.37855,0.0723 -0.51625,0.21652 -0.13771,0.12363 -0.24121,0.33999 -0.31006,0.64906 -0.0688,0.28848 -0.10335,0.70037 -0.10335,1.2361 v 7.41815 c 0,0.80361 0.0776,1.34966 0.23254,1.63814 0.17213,0.28847 0.41312,0.43253 0.72295,0.43253 0.22374,0 0.40439,-0.0515 0.54209,-0.15451 0.1377,-0.12364 0.24069,-0.30878 0.30954,-0.55604 0.0688,-0.26787 0.10335,-0.61838 0.10335,-1.0511 v -2.3797 h 4.0535 v 2.16318 c 0,1.19511 -0.20648,2.20506 -0.6196,3.02927 -0.39587,0.80361 -0.97223,1.41155 -1.72961,1.82366 -0.74013,0.3915 -1.63514,0.58705 -2.6851,0.58705 -1.08434,0 -2.01391,-0.23715 -2.78846,-0.71107 -0.75738,-0.47392 -1.34286,-1.15364 -1.75597,-2.03967 -0.41305,-0.88603 -0.6196,-1.95734 -0.6196,-3.21427 V 313.246 c 0,-1.27753 0.20655,-2.35925 0.6196,-3.24528 0.41311,-0.88602 0.99859,-1.55586 1.75597,-2.00918 0.77455,-0.47392 1.70412,-0.71107 2.78846,-0.71107 z m 11.38896,0 c 1.06715,0 1.98807,0.21634 2.76263,0.64905 0.79174,0.43272 1.40312,1.08175 1.83348,1.94717 0.43029,0.86543 0.64544,1.94766 0.64544,3.2458 v 6.79958 c 0,1.29814 -0.21515,2.37986 -0.64544,3.24528 -0.43036,0.86542 -1.04174,1.51446 -1.83348,1.94717 -0.77456,0.43271 -1.69548,0.64906 -2.76263,0.64906 -1.06721,0 -1.99672,-0.21635 -2.78846,-0.64906 -0.77455,-0.43271 -1.37682,-1.08175 -1.80712,-1.94717 -0.41311,-0.86542 -0.6196,-1.94714 -0.6196,-3.24528 v -6.79958 c 0,-1.29814 0.20649,-2.38037 0.6196,-3.2458 0.4303,-0.86542 1.03257,-1.51445 1.80712,-1.94717 0.79174,-0.43271 1.72125,-0.64905 2.78846,-0.64905 z m 14.61668,0 c 0.61961,0 1.12749,0.18566 1.52342,0.55655 0.41306,0.35029 0.72259,0.84487 0.92915,1.48363 0.20655,0.61816 0.31006,1.32908 0.31006,2.13269 v 14.00121 h -4.18269 v -13.29066 c 0,-0.43272 -0.0604,-0.76244 -0.18087,-0.98909 -0.12052,-0.22666 -0.34426,-0.33951 -0.67128,-0.33951 -0.17213,0 -0.37862,0.0614 -0.6196,0.185 -0.22374,0.10303 -0.45613,0.25801 -0.69711,0.46406 v 13.9702 h -4.20853 v -17.86506 h 4.20853 v 1.79266 c 0.55081,-0.65937 1.11858,-1.17423 1.70377,-1.54513 0.60242,-0.37089 1.23106,-0.55655 1.88515,-0.55655 z m 26.42165,0 c 1.51469,0 2.64209,0.50498 3.38222,1.51463 0.75737,0.98906 1.13636,2.27674 1.13636,3.86334 v 8.34522 c 0,0.74179 0.008,1.39082 0.0253,1.94717 0.0341,0.55634 0.0686,1.04051 0.10335,1.45262 0.0518,0.4121 0.0949,0.76262 0.12919,1.0511 h -3.7698 c -0.0518,-0.47393 -0.11168,-0.9893 -0.18035,-1.54564 -0.0688,-0.55635 -0.1206,-0.88607 -0.15503,-0.98909 -0.17213,0.74179 -0.49937,1.40124 -0.98133,1.97818 -0.46462,0.57682 -1.09258,0.86545 -1.88412,0.86558 -0.75708,-10e-5 -1.39421,-0.21645 -1.91048,-0.64906 -0.51633,-0.43271 -0.90398,-0.97878 -1.16221,-1.63814 -0.25816,-0.67998 -0.38705,-1.3701 -0.38705,-2.07068 0,-1.11269 0.18064,-2.05034 0.54208,-2.81274 0.37869,-0.76239 0.86932,-1.40104 1.47175,-1.91617 0.60243,-0.51513 1.26504,-0.94782 1.98799,-1.29811 0.72289,-0.3709 1.43732,-0.7006 2.14302,-0.98908 v -1.79266 c 0,-0.30909 -0.0257,-0.57691 -0.0775,-0.80357 -0.0518,-0.24726 -0.13804,-0.43291 -0.25838,-0.55655 -0.12047,-0.14423 -0.30111,-0.21653 -0.54209,-0.21653 -0.24098,0 -0.43074,0.0619 -0.56844,0.18552 -0.12046,0.12363 -0.2062,0.29889 -0.25787,0.52555 -0.0518,0.20605 -0.0863,0.44321 -0.10335,0.71107 l -0.10335,1.29811 -3.92431,-0.18552 c 0.086,-2.14295 0.55942,-3.71925 1.42007,-4.72891 0.87783,-1.03026 2.18588,-1.54564 3.92431,-1.54564 z m 23.3717,0 h 5.1e-4 c 1.51469,0 2.64209,0.50498 3.38223,1.51463 0.75737,0.98906 1.13637,2.27674 1.13637,3.86334 v 8.34522 c 0,0.74179 0.01,1.39082 0.025,1.94717 0.034,0.55634 0.069,1.04051 0.1033,1.45262 0.052,0.4121 0.096,0.76262 0.1298,1.0511 h -3.77036 c -0.0518,-0.47393 -0.11168,-0.9893 -0.18035,-1.54564 -0.0688,-0.55635 -0.1206,-0.88607 -0.15503,-0.98909 -0.17213,0.74179 -0.49936,1.40124 -0.98133,1.97818 -0.46461,0.57682 -1.09264,0.86545 -1.88412,0.86558 -0.75713,-10e-5 -1.39421,-0.21645 -1.91048,-0.64906 -0.51633,-0.43271 -0.90398,-0.97878 -1.16221,-1.63814 -0.25816,-0.67998 -0.38705,-1.3701 -0.38705,-2.07068 0,-1.11269 0.18064,-2.05034 0.54208,-2.81274 0.37869,-0.76239 0.86932,-1.40104 1.47175,-1.91617 0.60242,-0.51513 1.26504,-0.94782 1.98799,-1.29811 0.72289,-0.3709 1.43731,-0.7006 2.14302,-0.98908 v -1.79266 c 0,-0.30909 -0.0257,-0.57691 -0.0775,-0.80357 -0.0518,-0.24726 -0.13804,-0.43291 -0.25838,-0.55655 -0.12046,-0.14423 -0.30111,-0.21653 -0.54209,-0.21653 -0.24099,0 -0.43021,0.0619 -0.56792,0.18552 -0.12046,0.12363 -0.20672,0.29889 -0.25839,0.52555 -0.0518,0.20605 -0.0863,0.44321 -0.10335,0.71107 l -0.10335,1.29811 -3.92431,-0.18552 c 0.086,-2.14295 0.55941,-3.71925 1.42007,-4.72891 0.87783,-1.03026 2.18589,-1.54564 3.92431,-1.54564 z m -29.46797,0.093 c 0.1377,0 0.25845,0.0104 0.36173,0.031 0.10328,0 0.19761,0.0203 0.28371,0.0615 v 5.00744 c -0.18938,-0.10302 -0.40446,-0.18571 -0.64544,-0.24753 -0.22374,-0.0824 -0.46479,-0.1235 -0.72296,-0.1235 -0.48196,0 -0.92944,0.15445 -1.34255,0.46353 -0.41305,0.30908 -0.79159,0.73137 -1.13585,1.26711 v 11.62151 h -4.20853 v -17.86506 h 4.20853 v 2.96726 c 0.48191,-1.03027 0.96394,-1.81296 1.44591,-2.34869 0.48197,-0.55635 1.06699,-0.83457 1.75545,-0.83457 z m -184.50244,0.216 h 4.20802 v 17.86506 h -4.20802 z m 34.63562,0 h 3.51089 l 1.08469,10.13789 1.16169,-10.13789 h 3.04684 l 1.00666,10.38542 1.26504,-10.38542 h 3.25303 l -2.22002,17.86506 h -3.61477 l -1.29088,-10.04486 -1.4459,10.04486 h -3.56309 z m -41.73906,2.68925 c -0.22376,0 -0.41353,0.0619 -0.56844,0.18551 -0.15491,0.10303 -0.27516,0.27829 -0.36122,0.52555 -0.0861,0.24727 -0.14644,0.57698 -0.18086,0.98909 -0.0344,0.4121 -0.0517,0.91657 -0.0517,1.51412 0,0.57695 0.0172,1.07152 0.0517,1.48363 0.0344,0.3915 0.0862,0.72122 0.15503,0.98909 0.0861,0.24726 0.20682,0.43291 0.36173,0.55655 0.15491,0.10302 0.35279,0.15451 0.59376,0.15451 0.24097,0 0.43023,-0.0515 0.56793,-0.15451 0.15491,-0.12364 0.26652,-0.30929 0.33538,-0.55655 0.0861,-0.24726 0.14644,-0.57699 0.18086,-0.98909 0.0344,-0.41211 0.0517,-0.90668 0.0517,-1.48363 0,-0.59755 -0.0172,-1.09213 -0.0517,-1.48363 -0.0344,-0.41211 -0.0948,-0.74183 -0.18086,-0.98909 -0.0689,-0.26787 -0.18047,-0.45301 -0.33538,-0.55604 -0.1377,-0.12363 -0.32696,-0.18551 -0.56793,-0.18551 z m 73.9929,0.031 c -0.22376,0 -0.43889,0.0619 -0.64544,0.18552 -0.18933,0.10303 -0.3791,0.23669 -0.56844,0.40153 v 11.12696 c 0.18934,0.14424 0.37911,0.26801 0.56844,0.37104 0.20655,0.0824 0.40443,0.12351 0.59377,0.12351 0.2754,0 0.49052,-0.0926 0.64543,-0.27802 0.15492,-0.18545 0.26654,-0.4226 0.33538,-0.71107 0.0689,-0.30909 0.10336,-0.6492 0.10336,-1.02009 v -8.34523 c 0,-0.35029 -0.0345,-0.65919 -0.10336,-0.92707 -0.0688,-0.28847 -0.18046,-0.51523 -0.33538,-0.68007 -0.13769,-0.16484 -0.33557,-0.24701 -0.59376,-0.24701 z m 135.07289,0.0925 c -0.37862,0 -0.65417,0.19606 -0.8263,0.58756 -0.17213,0.3709 -0.25787,0.82387 -0.25787,1.35961 v 8.22172 c 0,0.37089 0.0345,0.71101 0.10336,1.02009 0.0688,0.28847 0.18049,0.5251 0.33538,0.71055 0.15494,0.16484 0.36143,0.24753 0.6196,0.24753 0.1377,0 0.30109,-0.0411 0.49041,-0.1235 0.20655,-0.0824 0.41356,-0.19579 0.62011,-0.34003 v -11.28149 c -0.17213,-0.10302 -0.35329,-0.19611 -0.5426,-0.27853 -0.18937,-0.0824 -0.36996,-0.12351 -0.54209,-0.12351 z m -105.03648,0.21653 c -0.2754,0 -0.49053,0.0926 -0.64544,0.27802 -0.15491,0.16484 -0.26653,0.41238 -0.33538,0.74207 -0.0689,0.30907 -0.10335,0.69028 -0.10335,1.1436 v 7.47965 c 0,0.45332 0.0345,0.84491 0.10335,1.1746 0.0688,0.30907 0.18047,0.55612 0.33538,0.74156 0.15491,0.16485 0.37004,0.24753 0.64544,0.24753 0.2754,0 0.49053,-0.0827 0.64544,-0.24753 0.15491,-0.18544 0.25842,-0.43249 0.31006,-0.74156 0.0688,-0.32969 0.10335,-0.72128 0.10335,-1.1746 v -7.47965 c 0,-0.45332 -0.0345,-0.83453 -0.10335,-1.1436 -0.0516,-0.32969 -0.15512,-0.57723 -0.31006,-0.74207 -0.15491,-0.18545 -0.37004,-0.27802 -0.64544,-0.27802 z m 52.66035,0 c -0.27541,0 -0.49055,0.0926 -0.64544,0.27802 -0.15494,0.16484 -0.26704,0.41238 -0.33589,0.74207 -0.0688,0.30907 -0.10284,0.69028 -0.10284,1.1436 v 7.47965 c 0,0.45332 0.0341,0.84491 0.10284,1.1746 0.0688,0.30907 0.18095,0.55612 0.33589,0.74156 0.15489,0.16485 0.37003,0.24753 0.64544,0.24753 0.27541,0 0.49055,-0.0827 0.64544,-0.24753 0.15495,-0.18544 0.25793,-0.43249 0.30954,-0.74156 0.0689,-0.32969 0.10336,-0.72128 0.10336,-1.1746 v -7.47965 c 0,-0.45332 -0.0345,-0.83453 -0.10336,-1.1436 -0.0518,-0.32969 -0.15477,-0.57723 -0.30954,-0.74207 -0.15489,-0.18545 -0.37003,-0.27802 -0.64544,-0.27802 z m -94.65417,0.24701 c -0.20655,0 -0.38717,0.0619 -0.54208,0.18552 -0.1377,0.12363 -0.24984,0.33997 -0.3359,0.64905 -0.0861,0.28847 -0.12919,0.71076 -0.12919,1.26711 v 1.51464 h 2.11718 v -1.79266 c 0,-0.47392 -0.0512,-0.84471 -0.15451,-1.11259 -0.0861,-0.26786 -0.21545,-0.45353 -0.38757,-0.55656 -0.15492,-0.10302 -0.34417,-0.15451 -0.56793,-0.15451 z m 59.50541,0 c -0.20655,0 -0.38717,0.0619 -0.54208,0.18552 -0.1377,0.12363 -0.24984,0.33997 -0.3359,0.64905 -0.0861,0.28847 -0.12867,0.71076 -0.12867,1.26711 v 1.51464 h 2.11718 v -1.79266 c 0,-0.47392 -0.0518,-0.84471 -0.15503,-1.11259 -0.0861,-0.26786 -0.21545,-0.45353 -0.38757,-0.55656 -0.15491,-0.10302 -0.34416,-0.15451 -0.56793,-0.15451 z m -132.46581,5.718 c -0.34425,0.24727 -0.66237,0.50521 -0.95498,0.77308 -0.29261,0.24726 -0.54224,0.52497 -0.74879,0.83405 -0.20655,0.30908 -0.36993,0.64921 -0.49041,1.0201 -0.10328,0.35029 -0.15503,0.75229 -0.15503,1.20561 0,0.59756 0.10299,1.07133 0.30954,1.42162 0.20655,0.35029 0.49068,0.52555 0.85214,0.52555 0.17213,0 0.32739,-0.0411 0.46509,-0.12351 0.15491,-0.0824 0.29241,-0.19578 0.4129,-0.34003 0.12048,-0.14423 0.22347,-0.28882 0.30954,-0.43305 z m 41.78763,0 c -0.34425,0.24727 -0.66289,0.50521 -0.9555,0.77308 -0.29261,0.24726 -0.54224,0.52497 -0.74879,0.83405 -0.20655,0.30908 -0.36992,0.64921 -0.49041,1.0201 -0.10327,0.35029 -0.15503,0.75229 -0.15503,1.20561 0,0.59756 0.10351,1.07133 0.31006,1.42162 0.20654,0.35029 0.49068,0.52555 0.85214,0.52555 0.17213,0 0.32688,-0.0411 0.46457,-0.12351 0.15492,-0.0824 0.29241,-0.19578 0.4129,-0.34003 0.12048,-0.14423 0.22399,-0.28882 0.31006,-0.43305 z m 167.33035,0 c -0.3442,0.24727 -0.66284,0.50521 -0.95549,0.77308 -0.2926,0.24726 -0.54224,0.52497 -0.7488,0.83405 -0.20655,0.30908 -0.36994,0.64921 -0.49041,1.0201 -0.10327,0.35029 -0.15502,0.75229 -0.15502,1.20561 0,0.59756 0.1035,1.07133 0.31005,1.42162 0.20656,0.35029 0.4907,0.52555 0.85215,0.52555 0.17213,0 0.32686,-0.0411 0.46457,-0.12351 0.15489,-0.0824 0.29243,-0.19578 0.41289,-0.34003 0.12053,-0.14423 0.22403,-0.28882 0.31006,-0.43305 z m 23.37222,0 c -0.3442,0.24727 -0.66285,0.50521 -0.9555,0.77308 -0.29259,0.24726 -0.54223,0.52497 -0.74879,0.83405 -0.20656,0.30908 -0.36995,0.64921 -0.49041,1.0201 -0.10328,0.35029 -0.15503,0.75229 -0.15503,1.20561 0,0.59756 0.1035,1.07133 0.31006,1.42162 0.20656,0.35029 0.4907,0.52555 0.85215,0.52555 0.17213,0 0.32686,-0.0411 0.46457,-0.12351 0.15488,-0.0824 0.29289,-0.19578 0.41341,-0.34003 0.12046,-0.14423 0.2235,-0.28882 0.30954,-0.43305 z m -223.24581,8.25634 c -0.0941,0.10151 -0.19218,0.19833 -0.28163,0.30541 -0.15491,0.18545 -0.2843,0.38099 -0.38758,0.58704 -0.10327,0.22666 -0.15502,0.48461 -0.15502,0.77308 0,0.45332 0.21513,0.79293 0.64543,1.01958 0.43031,0.22666 1.1447,0.34003 2.14303,0.34003 0.82619,0 1.46295,-0.0926 1.91047,-0.27802 0.46474,-0.16485 0.69712,-0.50496 0.69712,-1.02009 0,-0.28847 -0.0599,-0.51523 -0.18035,-0.68007 -0.12049,-0.16484 -0.31837,-0.2985 -0.59376,-0.40152 -0.2754,-0.10303 -0.65442,-0.18572 -1.13637,-0.24753 z"
       inkscape:export-filename="e404.webp"
       inkscape:export-xdpi="96"
       inkscape:export-ydpi="96"
       sodipodi:nodetypes="ccssccsccccscccccccssssccscccccccsscccccccssccccccccccscsscsccccccsscccssccccccccsscccccccscccscssscsscssccsssscssscccscssscscsccssccsscccccssccsscsccccccccccccccsscccssssscscssscscsscsssccccscsccccccsccccccssssccccsssscccssccccccccscccccccsccccccccccccccccccsccccccccccccscccsccsccccccscccccsccscssccccccccsccsssccscccccccccccsssscssccccccccccccccscscccssscscccccccsscscssccccccscssccsscccsccsccscccsscccsscsscccscsscccccccsscscsccsccsccccccsssccsccsssccccccccsscssccccsccsscscsccsccsccccccsssccsccssssccsccscsccssscssccsccsssccccccccsscsssscsccssccssccsccssssccsccscsccssscssccsccsssccccccccssccsccsccsccsscsccsccsccscsssscsscsssscsccssccssccsccsssccccccccsscssccccccccscscsccsccsccccccsscscssccccccccscscsccsccsccccccccsccccsscccccccscccccccccccccccccccscssscccsccsscccssccccsscssccsscssccscccsssccssccsccssccssccssccsccssccssccsccsccssccsccsccsccscssscsccccscssscsccccscssscsccccscssscscccscssscssscc" /></g></svg>
